<svg class="icon" viewBox="0 0 142 142" xmlns="http://www.w3.org/2000/svg">
    <path d="M122.4 18.2188V29.1388H41.24V18.2188H122.4Z"/>
    <path d="M110.73 41.8516V52.7616H41.25V41.8516H110.73Z"/>
    <path d="M41.24 76.2716V65.3516H99V76.2716H41.24Z"/>
    <path d="M41.27 88.8711H87.18V100.001H41.27V88.8711Z"/>
    <path d="M75.6299 123.719H41.3999V112.609H75.6299V123.719Z"/>
    <path d="M28.7299 29.1812H17.8999V18.2812H28.7299V29.1812Z"/>
    <path d="M17.79 52.5691V41.7891H28.84V52.5691H17.79Z"/>
    <path d="M28.6301 76.6309H18.0901V65.4609H28.6301V76.6309Z"/>
    <path d="M28.93 89V100H18V89H28.93Z"/>
    <path d="M17.6699 123.559V112.789H28.6699V123.559H17.6699Z"/>
    <line x1="138.818" y1="139.182" x2="2.81803" y2="3.18199" stroke="#C3291C" stroke-width="9"/>
</svg>
